<?xml version="1.0" encoding="UTF-8"?>
<svg width="23px" height="27px" viewBox="0 0 23 27" version="1.1" xmlns="http://www.w3.org/2000/svg" xmlns:xlink="http://www.w3.org/1999/xlink">
    <title>Logo</title>
    <g id="web" stroke="none" stroke-width="1" fill="none" fill-rule="evenodd">
        <g id="10" transform="translate(-225.000000, -61.000000)" fill="#76FFBA" fill-rule="nonzero">
            <path d="M225.26382,72.643737 C225.027428,72.2738881 225.055452,71.7391667 225.414234,71.4005095 C225.768345,71.1509727 226.278494,71.1777084 226.599911,71.5520133 L226.599911,71.5520133 L235.619224,83.2846878 C237.788789,85.8112454 241.614907,86.0117637 244.036683,83.7258282 C246.45846,81.4398926 246.668637,77.4294817 244.499072,74.9029241 L244.499072,74.9029241 L235.210673,63.4242424 C234.889256,63.0499376 234.91728,62.5152161 235.276061,62.176559 C235.634843,61.8379019 236.144992,61.8646377 236.461739,62.3280627 L236.461739,62.3280627 L245.835163,73.8112004 C247.201185,75.4019959 247.858985,77.4918651 247.751561,79.5416307 C247.644138,81.5913963 246.77149,83.6010583 245.156972,85.1250153 C242.017632,88.0882651 237.171216,87.8342752 234.358817,84.5591079 L234.358817,84.5591079 Z M235.006167,78.2644882 C235.138054,75.7479418 237.218965,73.8742805 239.735512,74.0061671 C242.252058,74.1380537 244.12572,76.2189654 243.993833,78.7355118 C243.861946,81.2520582 241.781035,83.1257195 239.264488,82.9938329 C236.747942,82.8619463 234.87428,80.7810346 235.006167,78.2644882 Z M225.992924,63.8007405 C225.674251,63.414302 225.703237,62.8612149 226.060559,62.5102039 C226.41788,62.1591928 226.924877,62.1857634 227.24355,62.5722019 L227.24355,62.5722019 L236.007076,73.1992595 C236.166412,73.3924787 236.236419,73.6734507 236.226757,73.8578131 C236.217095,74.0421755 236.118102,74.3142906 235.939441,74.4897961 C235.58212,74.8408072 235.075123,74.8142366 234.75645,74.4277981 L234.75645,74.4277981 Z" id="Logo"></path>
        </g>
    </g>
</svg>