<svg height="201" viewBox="0 0 301 201" width="301" xmlns="http://www.w3.org/2000/svg" xmlns:xlink="http://www.w3.org/1999/xlink"><mask id="a" fill="#fff"/><g fill="none" fill-rule="evenodd"><path d="m50.84375-49.621094h200v300h-200z" fill="#404142" fill-opacity=".3" fill-rule="nonzero" transform="matrix(0 -1 1 0 50.464844 251.222656)"/><g fill-rule="nonzero" transform="matrix(0 1 -1 0 201 50.5)"><ellipse cx="50" cy="50" fill="#76ffba" opacity=".3" rx="50" ry="49.707602"/><g mask="url(#a)" opacity=".565685"><g transform="translate(-69.625731 -44.05848)"><ellipse cx="58.411344" cy="91.975794" fill="#76ffba" rx="35.411344" ry="35.515405"/><path d="m-61.7940462 62.6150582h182.5698232v57.9458348h-182.5698232z" fill="#404142" fill-opacity=".5" transform="matrix(0 -1 1 0 -62.09711 121.078842)"/></g></g><g mask="url(#a)" opacity=".409528"><g transform="translate(-28.625731 -12.05848)"><ellipse cx="58.411344" cy="91.975794" fill="#76ffba" rx="35.411344" ry="35.515405"/><g fill="#404142" fill-opacity=".5"><path d="m-61.7940462 62.6150582h182.5698232v57.9458348h-182.5698232z" opacity=".658552" transform="matrix(0 -1 1 0 -62.09711 121.078842)"/><path d="m9.20595385 62.6150582h182.56982315v57.9458348h-182.56982315z" opacity=".658552" transform="matrix(0 -1 1 0 8.90289 192.078842)"/></g></g></g></g><text fill="#fff" font-family="DMSans-Medium, DM Sans" font-size="58" font-weight="400"><tspan x="130.903" y="120">H</tspan></text></g></svg>