<?xml version="1.0" encoding="UTF-8"?>
<svg width="256px" height="256px" viewBox="0 0 256 256" version="1.1" xmlns="http://www.w3.org/2000/svg" xmlns:xlink="http://www.w3.org/1999/xlink">
    <title>komettoken</title>
    <defs>
        <rect id="path-1" x="0" y="0" width="256" height="256" rx="128"></rect>
    </defs>
    <g id="brand" stroke="none" stroke-width="1" fill="none" fill-rule="evenodd">
        <g id="komettoken">
            <g id="Group-2">
                <mask id="mask-2" fill="white">
                    <use xlink:href="#path-1"></use>
                </mask>
                <use id="Mask" fill="#76FFBA" fill-rule="nonzero" xlink:href="#path-1"></use>
            </g>
            <g id="Group" transform="translate(40.384242, 32.895706)" fill="#121111" fill-rule="nonzero">
                <path d="M96.7738269,13.2238427 C99.3394861,11.3901369 103.187975,11.3901369 105.753634,13.835078 C107.677879,16.2800191 107.677879,19.9474307 105.112219,22.3923718 L105.112219,22.3923718 L24.2939534,91.4619576 C6.9757535,107.96531 6.9757535,135.470897 24.2939534,151.97425 C41.6121532,168.477602 70.4758197,168.477602 87.7940196,151.97425 L87.7940196,151.97425 L166.688041,81.0709579 C169.2537,78.6260169 173.102189,78.6260169 175.667849,81.0709579 C178.233508,83.515899 178.233508,87.1833107 175.026434,89.6282518 L175.026434,89.6282518 L96.1324121,161.142779 C85.2283603,171.533778 70.4758197,177.034896 55.7232791,177.034896 C40.9707384,177.034896 26.2181978,171.533778 14.6727312,160.531543 C-7.77678713,139.138309 -7.77678713,104.297898 14.6727312,82.9046638 L14.6727312,82.9046638 Z M60.9135491,88.4100282 C78.7321151,88.4100282 92.732417,102.44507 92.732417,120.307851 C92.732417,138.170632 78.7321151,152.205674 60.9135491,152.205674 C43.094983,152.205674 29.0946812,138.170632 29.0946812,120.307851 C29.0946812,102.44507 43.094983,88.4100282 60.9135491,88.4100282 Z M160.400135,15.283444 C163.049307,12.8586321 167.023066,12.8586321 169.672239,15.283444 C172.321412,17.7082559 172.321412,21.3454737 169.672239,23.7702856 L169.672239,23.7702856 L96.8199894,90.4526123 C95.495403,91.6650182 93.5085235,92.2712212 92.1839371,92.2712212 C90.8593508,92.2712212 88.8724712,91.6650182 87.5478849,90.4526123 C84.8987122,88.0278004 84.8987122,84.3905826 87.5478849,81.9657707 L87.5478849,81.9657707 Z" id="Combined-Shape" transform="translate(87.677102, 94.475825) rotate(-87.000000) translate(-87.677102, -94.475825) "></path>
            </g>
        </g>
    </g>
</svg>