<svg height="50" viewBox="0 0 50 50" width="50" xmlns="http://www.w3.org/2000/svg"><path d="m24.6253.165c-13.5996 0-24.625 11.0234-24.625 24.623 0 13.5997 11.0254 24.625 24.625 24.625 13.5986 0 24.624-11.0253 24.624-24.625s-11.0254-24.623-24.624-24.623zm-5.5544 36.3671c0 .0171-.0009.0322-.0024.0446-.0118-.0038-.0256-.0104-.0412-.018l-8.5216-4.2608c-.1193-.0597-.2505-.2719-.2505-.4055l.0005-19.5355 8.8152 4.4077zm1.0756-9.3049v-8.8948l7.9069 12.8477zm3.5253-5.2185 6.0596-9.8042 8.8934 4.4465-9.1255 14.8285zm15.1799 14.5169c0 .017-.001.0322-.0024.0445-.0118-.0047-.0256-.0104-.0407-.018l-8.5401-4.2693 8.5832-13.9485z" fill="#76ffba"/></svg>