<svg height="33" viewBox="0 0 172 33" width="172" xmlns="http://www.w3.org/2000/svg" xmlns:xlink="http://www.w3.org/1999/xlink"><defs><path id="a" d="m31.9583 0-13.1341 9.7183 2.4424-5.72731z"/><path id="b" d="m1.66284 0 13.01716 9.809-2.3254-5.81802z"/><path id="c" d="m27.2292 22.5334-3.4946 5.3386 7.4829 2.0603 2.1436-7.2822z"/><path id="d" d="m.27271 22.6501 2.13054 7.2822 7.46995-2.0603-3.48166-5.3386z"/><path id="e" d="m9.4704 13.5149-2.07855 3.1358 7.40495.3369-.2468-7.969z"/><path id="f" d="m24.1503 13.515-5.1574-4.58702-.1689 8.05972 7.4049-.3369z"/><path id="g" d="m9.8733 27.872 4.4819-2.1639-3.8583-3.0062z"/><path id="h" d="m19.2659 25.7081 4.4689 2.1639-.6106-5.1701z"/><path id="i" d="m23.7348 27.8722-4.4689-2.1639.3637 2.9025-.039 1.231z"/><path id="j" d="m9.8733 27.8722 4.1572 1.9696-.026-1.231.3507-2.9025z"/><path id="k" d="m14.1083 20.7842-3.7155-1.0884 2.6242-1.2051z"/><path id="l" d="m19.5127 20.7842 1.0913-2.2935 2.6372 1.2051z"/><path id="m" d="m9.8732 27.872.6496-5.3386-4.1312.1167z"/><path id="n" d="m23.0981 22.5334.6366 5.3386 3.4946-5.2219z"/><path id="o" d="m26.2289 16.6506-7.4049.3369.6885 3.7967 1.0913-2.2936 2.6372 1.2051z"/><path id="p" d="m10.3928 19.6957 2.6242-1.2051 1.0913 2.2936.6885-3.7967-7.40495-.3369z"/><path id="q" d="m7.39209 16.6506 3.10491 6.0513-.104-3.0062z"/><path id="r" d="m23.2412 19.6957-.1169 3.0062 3.1049-6.0513z"/><path id="s" d="m14.7972 16.9875-.6886 3.7967.8704 4.4833.1949-5.9087z"/><path id="t" d="m18.8242 16.9875-.3638 2.3584.1819 5.9216.8704-4.4833z"/><path id="u" d="m19.5127 20.7843-.8704 4.4833.6236.4406 3.8584-3.0062.1169-3.0062z"/><path id="v" d="m10.3928 19.6958.104 3.0062 3.8583 3.0062.6236-.4406-.8704-4.4833z"/><path id="w" d="m19.5907 29.8417.0389-1.231-.3377-.2851h-4.9626l-.3248.2851.026 1.231-4.1572-1.9696 1.455 1.1921 2.949 2.0344h5.0535l2.962-2.0344 1.442-1.1921z"/><path id="x" d="m19.2658 25.7081-.6236-.4405h-3.6635l-.6235.4405-.3508 2.9026.3248-.2851h4.9626l.3378.2851z"/><path id="y" d="m32.5168 10.3532 1.1043-5.36447-1.6629-4.98873-12.6923 9.3944 4.8846 4.1205 6.8983 2.0085 1.52-1.7752-.6625-.4795 1.0522-.9588-.8054-.622 1.0523-.8034z"/><path id="z" d="m0 4.98873 1.11724 5.36447-.71451.5313 1.06527.8034-.80545.622 1.05228.9588-.66255.4795 1.51997 1.7752 6.89835-2.0085 4.8846-4.1205-12.69233-9.3944z"/><path id="A" d="m31.0489 15.5233-6.8983-2.0084 2.0786 3.1358-3.1049 6.0512 4.1052-.0518h6.1318z"/><path id="B" d="m9.4704 13.5149-6.89826 2.0084-2.29943 7.1268h6.11883l4.10516.0518-3.10484-6.0512z"/><path id="C" d="m18.8241 16.9876.4417-7.5933 2.0006-5.40333h-8.9119l2.0006 5.40333.4417 7.5933.1689 2.3842.013 5.8958h3.6635l.013-5.8958z"/></defs><g fill="none" transform="translate(1 1)"><g fill="#fff"><path d="m150.256 15.64c-.884-.5831-1.858-.9977-2.78-1.516-.598-.3369-1.235-.635-1.754-1.0626-.884-.7256-.702-2.1509.221-2.7729 1.325-.8811 3.52-.3888 3.754 1.4124 0 .0388.039.0648.078.0648h2.001c.052 0 .091-.0389.078-.0907-.104-1.244-.585-2.2806-1.468-2.94145-.845-.63493-1.806-.97183-2.833-.97183-5.287 0-5.768 5.58478-2.923 7.34708.325.2073 3.118 1.6067 4.106 2.2157.987.609 1.299 1.7234.87 2.6045-.39.8034-1.403 1.3606-2.416 1.2958-1.105-.0648-1.962-.6608-2.261-1.5938-.052-.1684-.078-.4924-.078-.6349 0-.0389-.039-.0778-.078-.0778h-2.169c-.039 0-.078.0389-.078.0778 0 1.5679.39 2.436 1.455 3.2265 1 .7515 2.091 1.0625 3.222 1.0625 2.962 0 4.495-1.6716 4.806-3.4079.273-1.6975-.233-3.2265-1.753-4.2372z"/><path d="m56.0569 8.04688h-.9613-1.0523c-.039 0-.065.02591-.078.05183l-1.7797 5.85689c-.026.0778-.1299.0778-.1559 0l-1.7798-5.85689c-.013-.03888-.039-.05183-.078-.05183h-1.0522-.9614-1.2991c-.039 0-.078.03887-.078.07774v14.95328c0 .0388.039.0777.078.0777h2.1695c.039 0 .078-.0389.078-.0777v-11.364c0-.0907.1299-.1036.1559-.0259l1.7927 5.8958.1299.4146c.013.0389.039.0519.078.0519h1.6629c.0389 0 .0649-.026.0779-.0519l.1299-.4146 1.7928-5.8958c.026-.0907.1559-.0648.1559.0259v11.364c0 .0388.039.0777.0779.0777h2.1696c.0389 0 .0779-.0389.0779-.0777v-14.95328c0-.03887-.039-.07774-.0779-.07774z"/><path d="m117.037 8.04688c-.039 0-.065.02591-.078.05183l-1.779 5.85689c-.026.0778-.13.0778-.156 0l-1.78-5.85689c-.013-.03888-.039-.05183-.078-.05183h-3.3c-.039 0-.078.03887-.078.07774v14.95328c0 .0388.039.0777.078.0777h2.17c.039 0 .078-.0389.078-.0777v-11.364c0-.0907.13-.1036.156-.0259l1.792 5.8958.13.4146c.013.0389.039.0519.078.0519h1.663c.039 0 .065-.026.078-.0519l.13-.4146 1.793-5.8958c.026-.0907.156-.0648.156.0259v11.364c0 .0388.039.0777.078.0777h2.169c.039 0 .078-.0389.078-.0777v-14.95328c0-.03887-.039-.07774-.078-.07774z"/><path d="m89.0543 8.04688h-4.0403-2.1695-4.0402c-.039 0-.078.03887-.078.07774v1.86588c0 .0389.039.0778.078.0778h3.9623v13.0096c0 .0388.0389.0777.0779.0777h2.1695c.039 0 .078-.0389.078-.0777v-13.0096h3.9623c.039 0 .0779-.0389.0779-.0778v-1.86588c0-.03887-.0259-.07774-.0779-.07774z"/><path d="m101.851 23.1554h1.974c.052 0 .091-.0518.078-.1036l-4.079-15.0051c-.013-.03887-.039-.05183-.078-.05183h-.7533-1.3251-.7535c-.039 0-.065.02592-.078.05183l-4.0792 15.0051c-.013.0518.026.1036.078.1036h1.9746c.039 0 .065-.0259.078-.0518l1.1822-4.3668c.0129-.0388.0389-.0518.0779-.0518h4.3654c.039 0 .065.0259.078.0518l1.182 4.3668c.013.0259.052.0518.078.0518zm-5.1838-6.6084 1.585-5.844c.0259-.0777.1299-.0777.1559 0l1.5849 5.844c.013.0518-.026.1036-.078.1036h-3.1698c-.052 0-.0909-.0518-.078-.1036z"/><path d="m135.524 23.1554h1.974c.052 0 .091-.0518.078-.1036l-4.079-15.0051c-.013-.03887-.039-.05183-.078-.05183h-.753-1.325-.754c-.039 0-.065.02592-.078.05183l-4.079 15.0051c-.013.0518.026.1036.078.1036h1.975c.039 0 .065-.0259.078-.0518l1.182-4.3668c.013-.0388.039-.0518.078-.0518h4.365c.039 0 .065.0259.078.0518l1.182 4.3668c.013.0259.039.0518.078.0518zm-5.184-6.6084 1.585-5.844c.026-.0777.13-.0777.156 0l1.585 5.844c.013.0518-.026.1036-.078.1036h-3.17c-.052 0-.091-.0518-.078-.1036z"/><path d="m66.216 20.9398v-4.6389c0-.0388.039-.0777.078-.0777h5.781c.039 0 .078-.0389.078-.0778v-1.8659c0-.0388-.039-.0777-.078-.0777h-5.781c-.039 0-.078-.0389-.078-.0778v-3.965c0-.0389.039-.0778.078-.0778h6.5735c.039 0 .078-.0389.078-.0777v-1.86594c0-.03887-.039-.07775-.078-.07775h-6.6515-2.2474c-.039 0-.078.03888-.078.07775v1.94364 4.1335 2.0215 4.7943 2.0473c0 .0389.039.0778.078.0778h2.2474 6.9243c.039 0 .078-.0389.078-.0778v-1.9695c0-.0389-.039-.0778-.078-.0778h-6.8593c-.039-.0129-.065-.0389-.065-.0907z"/><path d="m170.08 23.026-7.509-7.7358c-.026-.0259-.026-.0777 0-.1036l6.756-6.99721c.052-.05183.013-.12958-.052-.12958h-2.767c-.026 0-.039.01296-.052.02592l-5.729 5.93467c-.052.0518-.13.0129-.13-.0519v-5.83094c0-.03887-.039-.07775-.078-.07775h-2.17c-.039 0-.078.03888-.078.07775v14.95324c0 .0389.039.0778.078.0778h2.17c.039 0 .078-.0389.078-.0778v-6.5825c0-.0648.091-.1037.13-.0519l6.495 6.6862c.013.013.039.026.052.026h2.767c.052-.013.091-.1037.039-.1426z"/></g><g stroke-linecap="round" stroke-linejoin="round"><use fill="#e17726" xlink:href="#a"/><use fill="#fff" xlink:href="#a"/><use stroke="#fff" stroke-width=".25" xlink:href="#a"/><use fill="#e27625" xlink:href="#b"/><use fill="#fff" xlink:href="#b"/><use stroke="#fff" stroke-width=".25" xlink:href="#b"/><use fill="#e27625" xlink:href="#c"/><use fill="#fff" xlink:href="#c"/><use stroke="#fff" stroke-width=".25" xlink:href="#c"/><use fill="#e27625" xlink:href="#d"/><use fill="#fff" xlink:href="#d"/><use stroke="#fff" stroke-width=".25" xlink:href="#d"/><use fill="#e27625" xlink:href="#e"/><use fill="#fff" xlink:href="#e"/><use stroke="#fff" stroke-width=".25" xlink:href="#e"/><use fill="#e27625" xlink:href="#f"/><use fill="#fff" xlink:href="#f"/><use stroke="#fff" stroke-width=".25" xlink:href="#f"/><use fill="#e27625" xlink:href="#g"/><use fill="#fff" xlink:href="#g"/><use stroke="#fff" stroke-width=".25" xlink:href="#g"/><use fill="#e27625" xlink:href="#h"/><use fill="#fff" xlink:href="#h"/><use stroke="#fff" stroke-width=".25" xlink:href="#h"/><use fill="#d5bfb2" xlink:href="#i"/><use fill="#fff" xlink:href="#i"/><use stroke="#fff" stroke-width=".25" xlink:href="#i"/><use fill="#d5bfb2" xlink:href="#j"/><use fill="#fff" xlink:href="#j"/><use stroke="#fff" stroke-width=".25" xlink:href="#j"/><use fill="#233447" xlink:href="#k"/><use fill="#fff" xlink:href="#k"/><use stroke="#fff" stroke-width=".25" xlink:href="#k"/><use fill="#233447" xlink:href="#l"/><use fill="#fff" xlink:href="#l"/><use stroke="#fff" stroke-width=".25" xlink:href="#l"/><use fill="#cc6228" xlink:href="#m"/><use fill="#fff" xlink:href="#m"/><use stroke="#fff" stroke-width=".25" xlink:href="#m"/><use fill="#cc6228" xlink:href="#n"/><use fill="#fff" xlink:href="#n"/><use stroke="#fff" stroke-width=".25" xlink:href="#n"/><use fill="#cc6228" xlink:href="#o"/><use fill="#fff" xlink:href="#o"/><use stroke="#fff" stroke-width=".25" xlink:href="#o"/><use fill="#cc6228" xlink:href="#p"/><use fill="#fff" xlink:href="#p"/><use stroke="#fff" stroke-width=".25" xlink:href="#p"/><use fill="#e27525" xlink:href="#q"/><use fill="#fff" xlink:href="#q"/><use stroke="#fff" stroke-width=".25" xlink:href="#q"/><use fill="#e27525" xlink:href="#r"/><use fill="#fff" xlink:href="#r"/><use stroke="#fff" stroke-width=".25" xlink:href="#r"/><use fill="#e27525" xlink:href="#s"/><use fill="#fff" xlink:href="#s"/><use stroke="#fff" stroke-width=".25" xlink:href="#s"/><use fill="#e27525" xlink:href="#t"/><use fill="#fff" xlink:href="#t"/><use stroke="#fff" stroke-width=".25" xlink:href="#t"/><use fill="#f5841f" xlink:href="#u"/><use fill="#fff" xlink:href="#u"/><use stroke="#fff" stroke-width=".25" xlink:href="#u"/><use fill="#f5841f" xlink:href="#v"/><use fill="#fff" xlink:href="#v"/><use stroke="#fff" stroke-width=".25" xlink:href="#v"/><use fill="#c0ac9d" xlink:href="#w"/><use fill="#fff" xlink:href="#w"/><use stroke="#fff" stroke-width=".25" xlink:href="#w"/><use fill="#161616" xlink:href="#x"/><use fill="#fff" xlink:href="#x"/><use stroke="#fff" stroke-width=".25" xlink:href="#x"/><use fill="#763e1a" xlink:href="#y"/><use fill="#fff" xlink:href="#y"/><use stroke="#fff" stroke-width=".25" xlink:href="#y"/><use fill="#763e1a" xlink:href="#z"/><use fill="#fff" xlink:href="#z"/><use stroke="#fff" stroke-width=".25" xlink:href="#z"/><use fill="#f5841f" xlink:href="#A"/><use fill="#fff" xlink:href="#A"/><use stroke="#fff" stroke-width=".25" xlink:href="#A"/><use fill="#f5841f" xlink:href="#B"/><use fill="#fff" xlink:href="#B"/><use stroke="#fff" stroke-width=".25" xlink:href="#B"/><use fill="#f5841f" xlink:href="#C"/><use fill="#fff" xlink:href="#C"/><use stroke="#fff" stroke-width=".25" xlink:href="#C"/></g></g></svg>