<?xml version="1.0" encoding="UTF-8"?>
<svg width="256px" height="256px" viewBox="0 0 256 256" version="1.1" xmlns="http://www.w3.org/2000/svg" xmlns:xlink="http://www.w3.org/1999/xlink">
    <title>Group 3 Copy 2</title>
    <defs>
        <rect id="path-1" x="0" y="0" width="256" height="256" rx="128"></rect>
    </defs>
    <g id="brand" stroke="none" stroke-width="1" fill="none" fill-rule="evenodd">
        <g id="Group-3-Copy-2">
            <mask id="mask-2" fill="white">
                <use xlink:href="#path-1"></use>
            </mask>
            <use id="Mask" fill="#FFE99E" fill-rule="nonzero" xlink:href="#path-1"></use>
            <path d="M126.745098,141.803922 C157.117741,141.803922 183.228353,136.831552 197.634308,129.25492 C205.227266,133.248305 209.568627,137.965199 209.568627,143.058824 C209.568627,148.152448 205.227266,152.869342 197.634308,156.862763 C183.228353,149.286095 157.117741,144.313725 126.745098,144.313725 C96.3724549,144.313725 70.2618431,149.286095 55.8558884,156.862727 C48.2629304,152.869342 43.9215686,148.152448 43.9215686,143.058824 C43.9215686,137.965199 48.2629304,133.248305 55.8558884,129.254884 C70.2618431,136.831552 96.3724549,141.803922 126.745098,141.803922 Z" id="Combined-Shape" fill="#121111" fill-rule="nonzero" mask="url(#mask-2)"></path>
            <path d="M126.745098,89.0980392 C173.126275,89.0980392 209.568627,100.693333 209.568627,115.45098 C209.568627,120.544828 205.226885,125.261913 197.633308,129.255446 C183.227145,121.678022 157.117038,116.705882 126.745098,116.705882 C96.3731576,116.705882 70.2630513,121.678022 55.8568884,129.254358 C48.2633116,125.261913 43.9215686,120.544828 43.9215686,115.45098 C43.9215686,100.693333 80.3639216,89.0980392 126.745098,89.0980392 Z" id="Combined-Shape" fill="#121111" fill-rule="nonzero" mask="url(#mask-2)"></path>
        </g>
    </g>
</svg>