<svg height="27" viewBox="0 0 170 27" width="170" xmlns="http://www.w3.org/2000/svg"><g fill="#fff"><path d="m23.8596491 26.8421053v-6.9590644h-7.5036825c-2.0405914 0-3.9308101 1.0818669-4.9759393 2.848131l-2.43265888 4.1109334z"/><path d="m0 0v6.95906433h19.7454285l4.1142206-6.95906433z"/><path d="m9.70947393 11.0534499-9.70947393 15.7886554h8.27224279l11.61079811-18.88888893h-4.5679693c-2.2976479 0-4.426282 1.17726618-5.60559767 3.10023353z"/><path d="m40.8302014 20.6712614c-4.0493335 0-7.0290318-2.9875283-7.0290318-6.9965986 0-3.9705215 2.998799-6.99659858 7.0481325-6.99659858s7.0481325 3.06462583 7.0481325 6.99659858c0 3.9705215-3.0178996 6.9965986-7.0672332 6.9965986zm.0191007-2.4478458c2.5594844 0 4.3931449-1.9274375 4.3931449-4.5487528 0-2.5827664-1.8336605-4.54875279-4.3931449-4.54875279-2.5785851 0-4.4122455 1.96598639-4.4122455 4.54875279 0 2.6213153 1.8336604 4.5487528 4.4122455 4.5487528zm9.7597163 6.6303856v-14.5714286h2.4448805v1.2913832h.1337044c.2674088-.4240363 1.1842392-1.5419501 3.0178996-1.5419501 2.8077926 0 4.7369562 2.1201814 4.7369562 5.2811792 0 3.1609977-1.910063 5.3582765-4.6605537 5.3582765-1.7763585 0-2.7313901-1.0022675-3.0561007-1.5612245h-.1337044v5.7437643zm5.1189687-6.4569162c1.604453 0 2.6931889-1.2528345 2.6931889-3.0453514 0-1.8503402-1.0887359-3.0453515-2.7122895-3.0453515-1.6426541 0-2.6740882 1.329932-2.6740882 3.0453515 0 1.8888888 1.1460378 3.0453514 2.6931888 3.0453514zm12.3192007 2.2743764c-2.9605976 0-5.061667-2.2358275-5.061667-5.2619047 0-3.1995465 2.1201699-5.377551 5.061667-5.377551 3.2280065 0 4.9852644 2.409297 4.9852644 5.2619047v.7902494h-7.640252c.0764025 1.5419502 1.1269371 2.5827665 2.7313901 2.5827665 1.2224404 0 2.1583711-.5782313 2.5021826-1.4070295h2.3111761c-.4966163 2.0623584-2.2920756 3.4115646-4.8897612 3.4115646zm-2.6167863-6.3605442h5.2335726c-.1146038-1.3684807-1.1651384-2.2743764-2.6167863-2.2743764-1.3943461 0-2.4639812 1.0022676-2.6167863 2.2743764zm10.2754332 6.1099774v-10.138322h2.3684782v1.2335601h.1337044c.4011132-.7517007 1.3943459-1.484127 2.8268932-1.484127 2.2538744 0 3.6291197 1.5997732 3.6291197 3.7585034v6.6303855h-2.4830819v-5.9750567c0-1.2335601-.7831258-2.0623583-1.9291637-2.0623583-1.2033396 0-2.062868.9637188-2.062868 2.2358277v5.8015873zm11.4214712 0v-2.2936509l6.9526291-8.84693868v-.13492064h-6.704321v-2.21655328h9.8750256v2.27437641l-6.9526292 8.84693869v.1541951h6.9908306v2.2165533zm16.8842511.2505668c-2.960598 0-5.0616669-2.2358275-5.0616669-5.2619047 0-3.1995465 2.1201699-5.377551 5.0616669-5.377551 3.228006 0 4.985264 2.409297 4.985264 5.2619047v.7902494h-7.640252c.076403 1.5419502 1.126938 2.5827665 2.73139 2.5827665 1.222441 0 2.158372-.5782313 2.502183-1.4070295h2.311176c-.496616 2.0623584-2.292075 3.4115646-4.889761 3.4115646zm-2.616786-6.3605442h5.233572c-.114603-1.3684807-1.165138-2.2743764-2.616786-2.2743764-1.394346 0-2.463981 1.0022676-2.616786 2.2743764zm10.275433 10.543084v-14.5714286h2.444881v1.2913832h.133704c.267409-.4240363 1.184239-1.5419501 3.0179-1.5419501 2.807792 0 4.736956 2.1201814 4.736956 5.2811792 0 3.1609977-1.910063 5.3582765-4.660554 5.3582765-1.776359 0-2.73139-1.0022675-3.056101-1.5612245h-.133704v5.7437643zm5.118969-6.4569162c1.604453 0 2.693189-1.2528345 2.693189-3.0453514 0-1.8503402-1.088736-3.0453515-2.71229-3.0453515-1.642654 0-2.674088 1.329932-2.674088 3.0453515 0 1.8888888 1.146038 3.0453514 2.693189 3.0453514zm7.887854 6.4569162v-14.5714286h2.444881v1.2913832h.133704c.267409-.4240363 1.184239-1.5419501 3.0179-1.5419501 2.807792 0 4.736956 2.1201814 4.736956 5.2811792 0 3.1609977-1.910063 5.3582765-4.660554 5.3582765-1.776358 0-2.73139-1.0022675-3.0561-1.5612245h-.133705v5.7437643zm5.118969-6.4569162c1.604453 0 2.693189-1.2528345 2.693189-3.0453514 0-1.8503402-1.088736-3.0453515-2.712289-3.0453515-1.642655 0-2.674089 1.329932-2.674089 3.0453515 0 1.8888888 1.146038 3.0453514 2.693189 3.0453514zm12.3192 2.2743764c-2.960597 0-5.061666-2.2358275-5.061666-5.2619047 0-3.1995465 2.120169-5.377551 5.061666-5.377551 3.228008 0 4.985266 2.409297 4.985266 5.2619047v.7902494h-7.640253c.076402 1.5419502 1.126938 2.5827665 2.73139 2.5827665 1.222441 0 2.158371-.5782313 2.502183-1.4070295h2.311176c-.496617 2.0623584-2.292075 3.4115646-4.889762 3.4115646zm-2.616785-6.3605442h5.233572c-.114604-1.3684807-1.165138-2.2743764-2.616787-2.2743764-1.394346 0-2.463981 1.0022676-2.616785 2.2743764zm12.720313 6.1099774c-1.757258 0-2.75049-1.0600907-2.75049-2.8526077v-11.60317462h2.483082v11.37188202c0 .5782313.286509.8866213.802226.8866213h.401113v2.197279zm4.564345-11.48752835c-.89773 0-1.528051-.55895692-1.528051-1.46485261 0-.86734693.630321-1.44557823 1.528051-1.44557823s1.52805.5782313 1.52805 1.44557823c0 .90589569-.63032 1.46485261-1.52805 1.46485261zm-1.24154 11.48752835v-10.138322h2.483081v10.138322zm5.500275 0v-10.138322h2.368479v1.2335601h.133704c.401113-.7517007 1.394345-1.484127 2.826893-1.484127 2.253874 0 3.62912 1.5997732 3.62912 3.7585034v6.6303855h-2.483083v-5.9750567c0-1.2335601-.783125-2.0623583-1.929163-2.0623583-1.203339 0-2.062868.9637188-2.062868 2.2358277v5.8015873z"/></g></svg>