<svg height="83" viewBox="0 0 94 83" width="94" xmlns="http://www.w3.org/2000/svg"><path d="m92 .9c-1.3-1.1-3.4-1.2-7-.1-2.5.8-24.7 9.2-44.3 17.3-17.6 7.3-31.9 13.7-33.6 14.5-1.9.6-6 2.4-6.2 5.2-.1 1.8 1.4 3.4 4.3 4.7 3.1 1.6 16.8 6.2 19.7 7.1 1 3.4 6.9 23.3 7.2 24.5.4 1.8 1.6 2.8 2.2 3.2.1.1.3.3.5.4.3.2.7.3 1.2.3.7 0 1.5-.3 2.2-.8 3.7-3 10.1-9.7 11.9-11.6 7.9 6.2 16.5 13.1 17.3 13.9 0 0 .1.1.1.1 1.9 1.6 3.9 2.5 5.7 2.5.6 0 1.2-.1 1.8-.3 2.1-.7 3.6-2.7 4.1-5.4 0-.1.1-.5.3-1.2 3.4-14.8 6.1-27.8 8.3-38.7 2.1-10.7 3.8-21.2 4.8-26.8.2-1.4.4-2.5.5-3.2.3-2 .5-4.3-1-5.6zm-65 48.4 47.7-31.6c.1-.1.3-.2.4-.3.1 0 .1-.1.2-.1s.1 0 .2-.1c-.1.1-.2.4-.4.6l-12.1 11.3c-8.4 7.7-19.4 17.8-26.7 24.4v.1s-.1.1-.1.1 0 .1-.1.1c0 .1 0 .1-.1.2v.1.1c-.5 5.6-1.4 15.2-1.8 19.5 0 0 0 0 0-.1-.4-1.2-6-20.3-7.2-24.3z" fill="#76ffba"/></svg>