<svg height="280" viewBox="0 0 266 280" width="266" xmlns="http://www.w3.org/2000/svg"><g fill="#fff"><path d="m0 240.28h20.95v7.11h-6.9v30.8h-7.32v-30.8h-6.73z"/><path d="m46.31 255.1h4.29c2.3 0 3.88-.3 4.74-.9.9157442-.71352 1.4055788-1.843907 1.3-3 .0241254-.78249-.1998944-1.552559-.64-2.2-.4201186-.612315-1.0216743-1.077472-1.72-1.33-1.3054468-.33477-2.6541125-.469637-4-.4h-4zm-7.22-14.82h9.68c4.1866667 0 7.17.373333 8.95 1.12 1.7849487.759866 3.2832915 2.065665 4.28 3.73 1.1216687 1.85135 1.6874719 3.986129 1.63 6.15.0815143 2.221937-.5491605 4.411781-1.8 6.25-1.3569211 1.799428-3.2409563 3.131186-5.39 3.81l9 16.85h-7.91l-8.53-16.05h-2.69v16.05h-7.22z"/><path d="m83.77 240.28h7.23v24.52c-.0828365 1.514809.1068362 3.032191.56 4.48.3626154.879544 1.0060517 1.614398 1.83 2.09.9307326.550674 1.9991207.824708 3.08.79 1.1542715.031661 2.2931608-.270422 3.28-.87.86127-.516987 1.531506-1.299514 1.91-2.23.447013-1.684818.625871-3.429529.53-5.17v-23.61h7.24v22.6c.110334 2.662845-.104587 5.329205-.64 7.94-.492394 1.59147-1.332694 3.053456-2.46 4.28-1.149853 1.306177-2.583004 2.332299-4.19 3-1.754069.701014-3.6314854 1.041126-5.52 1-2.5246785.056928-5.0139246-.601786-7.18-1.9-1.8950657-1.110962-3.416379-2.761082-4.37-4.74-.8733333-1.9-1.31-5.11-1.31-9.63z"/><path d="m131.28 240.28h18.82v7.03h-11.65v6.89h11.65v6.93h-11.65v17.06h-7.17z"/><path d="m170.07 240.28h18.82v7.03h-11.65v6.89h11.65v6.93h-11.65v17.06h-7.17z"/><path d="m208.8 240.28h7.22v31.03h10.51v6.88h-17.73z"/><path d="m244.7 240.28h20.69v7.06h-13.53v6.86h13.53v6.93h-13.53v9.98h13.53v7.08h-20.69z"/><ellipse cx="132.53" cy="102.14" fill-opacity=".2" rx="100.96" ry="102.14"/><path d="m100.78 192.71c4.13 1.41 18 5.92 18.59 1.51.32-2.42-7-4.9-16.91-10.15-14.0946385-7.449174-26.9888357-16.97571-38.25-28.26-16.4370961-16.117015-25.8886235-38.043697-26.32-61.06-.84-30.9 11.24-55.88 31.11-72-24.2986 18.7545569-38.8465417 47.4646994-39.6 78.15-.59 22.35 5.66 41.18 17.4 58.32 3.6455164 4.708512 7.9069477 8.906038 12.67 12.48 11.25 8.51 27.7 16.38 41.31 21"/><path d="m234.88 78.73c-6.26-29.44-25.72-50.05-51.75-64.61 19.87 14.17 47.92 44.3 31.4 70.88-14 21.29-48.05 17.12-66.65 7-22.12-12-49.83-39-22.5-65.4 17.69-17.08 74 2.07 64.09 27.6-5.78 14.85-28.28 11.55-38.4 4.29-7.46-5.36-13.74-14.57-10.42-24.08 1.07-3.05.92-7.78-3.39-4.3-3.21 2.6-4.83 6.88-5.39 10.86-4.71 33.29 54.6 59.1 72.19 26.89 9.14-16.72-5.66-41-24.29-50.94-14-7.5-28.58-12.77-46.43-11.49-28.56 2-52.53 19.9-55.53 49.08-3 29 16.39 55.1 39.22 70.71 24 16.4 56.26 27.21 85.78 17.43 26.46-8.77 37.39-39.14 32.07-63.93" fill-opacity=".389806"/><path d="m197.64 56.18c2.84-19.08-14.41-32.18-30.34-38.13-18.78-7-43.59-3.94-57.27 11.61-10 11.42-9.35 28-4.19 41.42 7.8 20.27 25.41 34.92 45.91 41.25 14.56 4.5 32.18 6.46 46.94 1.71 21.53-6.93 28.54-29.38 24.09-49.95-.952763-4.4468318-2.415784-8.7687845-4.36-12.88-2.72-5.71-11-17.27.43-3.19 1.203361 1.5691613 2.311998 3.2087428 3.32 4.91 2.368149 3.8902226 4.245752 8.0585685 5.59 12.41 6.26 19.2 1.35 41.6-16 53.19-13.31 8.87-30.23 9.93-45.67 7.71-20.7-3-40.21-13-53.77-29.09-12.38-14.67-20.83-35.74-15.74-55 3.73-14.09 15.17-24.61 28.87-29 17.33-5.61 36.4-3 52 6.11 7.82 4.55 15 10.85 18.95 19.11 1.809182 3.7210488 2.781947 7.7930067 2.85 11.93.039771 1.6755764-.090901 3.3508555-.39 5-.11.6-1.38 2.29-1.2.9"/></g></svg>