<svg height="83" viewBox="0 0 100 83" width="100" xmlns="http://www.w3.org/2000/svg"><path d="m31.4480469 81.4478516c37.7359375 0 58.3759765-31.2638672 58.3759765-58.3759766 0-.8878906 0-1.771875-.0599609-2.6519531 4.0152344-2.9044922 7.4814453-6.5003907 10.2359375-10.6199219-3.7443359 1.6591797-7.7167969 2.7470703-11.7839844 3.2279297 4.2820313-2.5632813 7.4888672-6.59804689 9.0199219-11.34804689-4.0271484 2.38964844-8.4335937 4.07402344-13.0279297 4.98007813-3.8792969-4.12519532-9.2972656-6.4671875-14.9595703-6.4671875-11.2660156 0-20.5361328 9.2703125-20.5361328 20.53593746 0 1.5628907.1785156 3.1208985.5316406 4.6431641-16.4878906-.8263672-31.8710937-8.6251953-42.28398436-21.4359375-5.41484375 9.3214844-2.61308594 21.4015625 6.35195316 27.3878906-3.2646485-.0966797-6.45917973-.977539-9.3119141-2.5679687v.2599609c.00273437 9.7292969 6.9232422 18.1857422 16.4599609 20.1121094-3.0203125.8236328-6.190039.9439453-9.2638672.3519531 2.6810547 8.3369141 10.4123047 14.0835938 19.1679688 14.2480469-7.2636719 5.7083984-16.2416016 8.8091797-25.48007813 8.8-1.63242187-.003125-3.26328124-.1019531-4.88398437-.2960938 9.38164062 6.0205078 20.3007812 9.2148438 31.4480469 9.2" fill="#76ffba" fill-rule="evenodd" transform="translate(0 .179688)"/></svg>