<svg height="198" viewBox="0 0 464 198" width="464" xmlns="http://www.w3.org/2000/svg" xmlns:xlink="http://www.w3.org/1999/xlink"><filter id="a"><feColorMatrix in="SourceGraphic" type="matrix" values="0 0 0 0 1.000000 0 0 0 0 1.000000 0 0 0 0 1.000000 0 0 0 1.000000 0"/></filter><g fill="#000" fill-rule="nonzero" filter="url(#a)"><path d="m98.6 64v-14.6c0-5.3-3.2-10-8.1-12.1l-90.5-37.3v8.1l80.7 33.3c2.8 1.1 2.8 5.1 0 6.2l-80.7 33.3v32.5l48.6-20.1 32 13.2c2.8 1.1 2.8 5.1 0 6.2l-80.6 33.3v51.5l90.5-37.3c4.9-2 8.1-6.8 8.1-12.1v-33.5c0-5.3-3.2-10-8.1-12.1l-32.1-13.2 32.1-13.2c4.9-2 8.1-6.8 8.1-12.1z"/><path d="m170.7 49.4 7.2 28.1 8.1-28.1h7.7l7.6 28.1 7.5-28.1h5.7l-9.7 33.9h-7.2l-8-29.2-8.3 29.2h-7.3l-9.4-33.9z"/><path d="m223.2 68c.2 2.8.5 4.2 1.4 6 1.7 3.2 5.5 5.3 9.3 5.3 4.6 0 7.6-2.2 8.9-6.5h6.3c-1.6 7.3-7.1 11.4-15.3 11.4-10.2 0-16.7-7-16.7-18 0-10.7 6.5-17.9 16.2-17.9 10.3 0 15.9 7 15.9 19.6h-26zm18.2-10.4c-1.6-2.7-4.8-4.3-8.1-4.3-5.7 0-9.3 3.6-10 10.1h19.7c-.3-3-.7-4.4-1.6-5.8z"/><path d="m254.9 36.5h5.8v18c2.4-4 5.7-5.9 10.5-5.9 8.4 0 14.4 7.3 14.4 17.8s-5.7 17.6-14.3 17.6c-4.7 0-7.8-1.9-10.8-6.3v5.6h-5.6zm5.9 29.7c0 7.4 4.2 12.9 9.7 12.9 5.3 0 8.8-5 8.8-12.7 0-8.1-3.5-13.1-9-13.1s-9.5 5.3-9.5 12.9z"/><path d="m296.1 69c-.1 6 3.7 9.9 9.7 9.9 5.4 0 9.3-3.4 9.3-8.1 0-4.8-3.7-7.7-9.7-7.7-.6 0-1.1 0-2 .1v-5.2h1.5c6.2 0 9.8-2.7 9.8-7.5 0-4.5-3.5-7.4-8.8-7.4-5.7 0-9 3.4-9.2 9.4h-6.2c.4-9.3 6.1-14.7 15.5-14.7 8.7 0 14.8 5 14.8 12.2 0 4.8-3.4 9.2-8 10.4 5.6 1.4 8.6 5.2 8.6 10.8 0 7.6-6.5 13-15.7 13-9.6 0-16.1-6.2-16-15.2z"/><path d="m171 119.3h-6.1v-4.7h6.1c.1-5.6.2-6.8 1-8.8 1.2-3.2 4.3-4.9 8.9-4.9.9 0 1.7.1 3.2.2v5.2c-1.4-.4-2-.4-2.9-.4-2 0-3.5 1-4 2.8-.4 1.2-.4 2.1-.4 5.8h7.3v4.7h-7.3v29.2h-5.8z"/><path d="m218.2 131.5c0 10.9-6.5 18-16.5 18-9.8 0-16.3-7.3-16.3-18.1 0-10.7 6.6-17.8 16.5-17.8 9.7.1 16.3 7.3 16.3 17.9zm-26.5-.3c0 8.3 3.7 13.4 9.9 13.4s10.3-5.1 10.3-13c0-8-4-13.1-10.2-13.1s-10 4.9-10 12.7z"/><path d="m246.4 144.5c-1.7 3-5.6 4.8-10.2 4.8-4.7 0-8.4-1.9-10.4-5.2-1.3-2.2-1.7-4.5-1.7-10.2v-19.3h5.8v20.4c0 6.4 2.4 9.4 7.3 9.4 3.2 0 6-1.5 7.6-4 1-1.6 1.2-3.5 1.2-9.5v-16.2h5.8v33.9h-5.6v-4.1z"/><path d="m264.5 118.7c2.6-3.4 5.7-4.8 10.3-4.8 4.7 0 8.4 1.9 10.4 5.2 1.3 2.2 1.7 4.5 1.7 10.2v19.3h-5.9v-20.4c0-6.5-2.4-9.4-7.3-9.4-3.3 0-6 1.5-7.6 4.1-1 1.6-1.2 3.4-1.2 9.5v16.2h-5.9v-33.9h5.5z"/><path d="m317.8 148.5v-5.6c-3 4.5-6.2 6.3-10.8 6.3-8.5 0-14.3-7.1-14.3-17.5 0-10.6 5.9-17.9 14.4-17.9 4.8 0 8.1 1.9 10.5 5.9v-18h5.8v46.7h-5.6zm-18.8-16.8c0 7.7 3.4 12.7 8.8 12.7 5.5 0 9.7-5.5 9.7-12.9 0-7.6-3.9-12.9-9.4-12.9s-9.1 5-9.1 13.1z"/><path d="m352.8 148.5c-.3-1.8-.4-2.4-.6-4.2-2.9 3.5-6.2 5-10.9 5-7.3 0-12.2-4.2-12.2-10.3 0-4.5 2.5-7.6 7.5-9.1 1.6-.5 4.2-1 7.2-1.4 1.9-.3 4.1-.6 7.9-.9-.1-4.4-.3-5.7-1.5-7s-3.3-2.1-5.9-2.1c-5 0-7.5 2.2-7.8 6.8h-6.1c.6-4.2 1.4-6.3 3.6-8.2 2.4-2.2 6.2-3.5 10.3-3.5 5.1 0 9.1 1.7 11.3 5 1.8 2.5 2.1 5 2 15.8-.1 6.8.2 10.4 1.1 14.1zm-17.4-9.3c0 3.4 2.6 5.4 6.8 5.4 3.6 0 6.4-1.3 8.1-3.9 1-1.5 1.4-3.5 1.4-7.3v-1.2c-12.1.8-16.3 2.6-16.3 7z"/><path d="m372.9 114.7h7.6v4.7h-7.6v18.1c0 3.8.1 4.5.7 5.3s2 1.3 3.6 1.3c1.2 0 2.3-.2 3.3-.5v5c-2.7.5-3.7.6-5.1.6-3.1 0-5.8-1.4-7.2-3.7-.8-1.5-1.1-2.9-1.1-6.2v-2.2-17.8h-6.2v-4.7h6.2v-8.2h5.8z"/><path d="m385.7 101.8h5.8v6.8h-5.8zm5.9 12.9v33.9h-5.8v-33.9z"/><path d="m430.2 131.5c0 10.9-6.5 18-16.5 18-9.8 0-16.3-7.3-16.3-18.1 0-10.7 6.6-17.8 16.5-17.8 9.7.1 16.3 7.3 16.3 17.9zm-26.5-.3c0 8.3 3.7 13.4 9.9 13.4s10.3-5.1 10.3-13c0-8-4-13.1-10.2-13.1s-10 4.9-10 12.7z"/><path d="m441.6 118.7c2.6-3.4 5.7-4.8 10.3-4.8 4.7 0 8.4 1.9 10.4 5.2 1.3 2.2 1.7 4.5 1.7 10.2v19.3h-5.8v-20.4c0-6.5-2.4-9.4-7.3-9.4-3.3 0-6 1.5-7.6 4.1-1 1.6-1.2 3.4-1.2 9.5v16.2h-5.8v-33.9h5.5v4z"/></g></svg>