<svg height="38" viewBox="0 0 92 38" width="92" xmlns="http://www.w3.org/2000/svg"><g fill="#fff"><path d="m54.305329 30.064065c-.9984147 0-1.9357017-.1731947-2.811861-.519584-.855784-.366764-1.609689-.876159-2.261715-1.528185-.63165-.672402-1.1308573-1.4874343-1.497622-2.445097-.3667647-.9576633-.550147-2.0477693-.550147-3.270318 0-1.222548.1833823-2.3126537.550147-3.270317.38714-.9780387.8863473-1.803259 1.497622-2.475661.63165-.6724013 1.3448033-1.1817963 2.13946-1.528185.7946567-.3667647 1.619877-.550147 2.475661-.550147.9372867 0 1.7726947.1630063 2.506224.489019.7539047.3260133 1.375367.794657 1.864387 1.405931.5093947.611274.896535 1.344803 1.161421 2.200587.2648853.855784.397328 1.813447.397328 2.872989 0 .264886-.0101867.5297717-.03056.794657 0 .24451-.0203767.458456-.06113.641838h-10.024899c.1018787 1.5893133.590898 2.8526133 1.467058 3.7899.8965353.9169113 2.0579563 1.375367 3.484263 1.375367.7131533 0 1.3651793-.101879 1.956078-.305637.611274-.224134 1.1919847-.5093953 1.742132-.855784l.886347 1.650441c-.6520253.407516-1.3753663.7640927-2.170023 1.06973s-1.7013803.458456-2.720171.458456zm-4.676248-8.985732h7.946566c0-1.50781-.326013-2.6488553-.978039-3.423136-.63165-.7946567-1.5281857-1.191985-2.689607-1.191985-.5297713 0-1.0391667.101879-1.528186.305637-.4686433.203758-.8965353.5093953-1.283676.916912-.38714.38714-.7131527.8659713-.978038 1.436494-.24451.5705227-.4075167 1.2225487-.48902 1.956078z"/><path d="m66.105788 30.064065c-.9576633 0-1.640253-.2852613-2.047769-.855784s-.611274-1.405931-.611274-2.506225v-18.76612h2.506224v18.949502c0 .4075167.0713153.692778.213946.855784.1426307.1630067.3056373.24451.48902.24451h.213946c.0815027 0 .1935693-.0203767.3362-.06113l.336201 1.89495c-.163006.0815033-.356576.1426307-.58071.183382-.224134.0407533-.5093953.061131-.855784.061131z"/><path d="m71.266757 29.6973v-14.853965h2.078332l.213946 2.13946h.09169c.652026-.7131533 1.3549917-1.3040517 2.108897-1.772695.7742807-.4890193 1.6096887-.733529 2.506224-.733529 1.1410453 0 2.027393.2546977 2.659043.764093.652026.4890193 1.1308577 1.1817967 1.436495 2.078332.7742807-.855784 1.5485613-1.5383737 2.322842-2.047769.7946567-.5297707 1.650441-.794656 2.567353-.794656 1.5281867 0 2.6590433.4890193 3.39257 1.467058.7539067.9780387 1.13086 2.424721 1.13086 4.340047v9.413624h-2.50623v-9.077423c0-1.4059307-.2241333-2.414533-.6724-3.025807-.4482667-.6316507-1.1410433-.947476-2.07833-.947476-1.12067 0-2.3635943.764093-3.728773 2.292279v10.758427h-2.506225v-9.077423c0-1.4059307-.2241337-2.414533-.672401-3.025807-.448268-.6316507-1.1512337-.947476-2.108897-.947476-1.1206693 0-2.3635937.764093-3.728773 2.292279v10.758427z"/><path d="m26.4513715 10.0809645h-15.8290141l7.9145637 7.9145637z"/><path d="m1.22946294.68807 7.97211098 7.97222427h17.32898178l-7.9722243-7.97222427z"/><path d="m22.087065 12.85341h12.197641v12.253262h-12.197641z" transform="matrix(.70710678 .70710678 -.70710678 .70710678 21.67637 -14.371305)"/><path d="m36.8488512.68807h-16.2814626l16.2814626 16.2813494z"/><path d="m.224991 1.69265522v34.61491628l17.3073449-17.3075714z"/><path d="m36.8488512 36.3075715v-15.3557217l-7.6778042 7.6778042z"/><path d="m1.2296895 37.3119302h34.6145765l-17.3073449-17.3073449z"/></g></svg>