<svg height="201" viewBox="0 0 301 201" width="301" xmlns="http://www.w3.org/2000/svg" xmlns:xlink="http://www.w3.org/1999/xlink"><defs><rect id="a" height="102" rx="51" width="102"/><mask id="b" fill="#fff"><use fill="#fff" fill-rule="evenodd" xlink:href="#a"/></mask></defs><g fill="none" fill-rule="nonzero"><path d="m50.84375-49.621094h200v300h-200z" fill="#404142" fill-opacity=".3" transform="matrix(0 -1 1 0 50.464844 251.222656)"/><g transform="translate(100 50)"><use fill="#121111" xlink:href="#a"/><g fill="#76ffba" mask="url(#b)"><path d="m35.9843689 5.88603186c.9540144-.67752961 2.3850361-.67752961 3.3390505.22584321.7155108.90337282.7155108 2.25843205-.2385036 3.16180487l-30.05145492 25.52028216c-6.43959749 6.0977666-6.43959749 16.2607108 0 22.3584773 6.43959752 6.0977666 17.17225992 6.0977666 23.61185742 0l29.3359441-26.1978118c.9540145-.9033728 2.3850361-.9033728 3.3390506 0 .9540144.9033728.9540144 2.2584321-.2385036 3.1618049l-29.3359441 26.423655c-4.0545614 3.8393345-9.5401445 5.8719233-15.0257275 5.8719233s-10.97116609-2.0325888-15.26423108-6.0977665c-8.34762637-7.9045122-8.34762637-20.7775749 0-28.6820871zm-13.3342817 27.78028344c6.6256536 0 11.8315243 5.1857591 11.8315243 11.7858162 0 6.600057-5.2058707 11.7858162-11.8315243 11.7858162s-11.8315242-5.1857592-11.8315242-11.7858162c0-6.6000571 5.2058706-11.7858162 11.8315242-11.7858162zm36.9930807-27.01928847c.9850681-.89593535 2.4626702-.89593535 3.4477383 0 .9850681.89593534.9850681 2.23983837 0 3.13577371l-27.0893723 24.63822206c-.492534.4479677-1.2313351.6719515-1.7238691.6719515-.4925341 0-1.2313351-.2239838-1.7238692-.6719515-.9850681-.8959353-.9850681-2.2398384 0-3.1357737z" transform="matrix(.05233596 -.99862953 .99862953 .05233596 13.03726 82.585454)"/></g></g></g></svg>