<svg height="27" viewBox="0 0 109 27" width="109" xmlns="http://www.w3.org/2000/svg"><path d="m236.385367 62.2288379.076372.0992248 9.373424 11.4831377c1.366022 1.5907955 2.023822 3.6806647 1.916398 5.7304303-.107423 2.0497656-.980071 4.0594276-2.594589 5.5833846-3.073937 2.9015154-7.784563 2.7184464-10.619766-.365145l-.178389-.2007624-9.094997-11.9153709c-.236392-.3698489-.208368-.9045703.150414-1.2432275.324602-.2287421.780319-.2253385 1.10159.0651273l.084087.0863765 9.019313 11.7326745c2.169565 2.5265576 5.995683 2.7270759 8.417459.4411404 2.359681-2.2273219 2.619722-6.0918182.624588-8.6256809l-.162199-.1972232-9.288399-11.4786817c-.321417-.3743048-.293393-.9090263.065388-1.2476834.331184-.3126066.791343-.3138724 1.109306.0522789zm-28.469367-.0628379v23.834h-2.72v-23.834zm12.444 0-8.466 11.9 9.248 11.934h-3.468l-8.874-11.798v-.136l8.398-11.9zm38.25 0 6.834 17h.204l6.834-17h4.318v23.834h-2.618v-20.638h-.204l-.238279.5704471c-1.950723 4.6847017-4.939241 12.1945129-6.799721 16.6335529h-2.89l-7.004-17.204h-.204v20.638h-2.584v-23.834zm37.264 0v2.414h-9.928v8.126h8.738v2.414h-8.738v8.466h10.404v2.414h-13.124v-23.834zm17.884 0v2.414h-6.324v21.42h-2.72v-21.42h-6.358v-2.414zm-74.022488 11.8401671c2.516546.1318866 4.390208 2.2127983 4.258321 4.7293447s-2.212798 4.3902077-4.729345 4.2583211c-2.516546-.1318866-4.390208-2.2127983-4.258321-4.7293447s2.212798-4.3902077 4.729345-4.2583211zm-12.568691-11.5167471.076729.0827819 8.763526 10.6270576c.159336.1932192.229343.4741912.219681.6585536s-.108655.4564775-.287316.631983c-.329835.3240102-.787204.3262941-1.106262.0207839l-.076729-.0827819-8.763526-10.6270576c-.318673-.3864385-.289687-.9395256.067635-1.2905366.329835-.3240102.787204-.3262941 1.106262-.0207839z" fill="#76ffba" transform="translate(-205 -61)"/></svg> 
