<svg height="201" viewBox="0 0 301 201" width="301" xmlns="http://www.w3.org/2000/svg" xmlns:xlink="http://www.w3.org/1999/xlink"><defs><rect id="a" height="102" rx="51" width="102"/><mask id="b" fill="#fff"><use fill="#fff" fill-rule="evenodd" xlink:href="#a"/></mask></defs><g fill="none" fill-rule="nonzero"><path d="m50.84375-49.621094h200v300h-200z" fill="#404142" fill-opacity=".3" transform="matrix(0 -1 1 0 50.464844 251.222656)"/><g transform="translate(100 50)"><use fill="#121111" xlink:href="#a"/><g fill="#ffe99e"><path d="m78.7444044 51.4997218c3.0256379 1.5911863 4.7555956 3.4706721 4.7555956 5.5002782s-1.7299577 3.9090919-4.7555956 5.5002782c-5.7399799-3.0192181-16.1431664-5.0002782-28.2444044-5.0002782s-22.5044245 1.9810601-28.2444044 4.9997218c-3.0256379-1.5906299-4.7555956-3.4701157-4.7555956-5.4997218s1.7299577-3.9090919 4.7555956-5.5002782c5.7399799 3.0192181 16.1431664 5.0002782 28.2444044 5.0002782 12.012 0 22.3509-1.95195 28.11666-4.93311z" mask="url(#b)"/><path d="m50.5 35.5c18.48 0 33 4.62 33 10.5 0 2.0296061-1.7299577 3.9090919-4.7555956 5.5002782-5.7399799-3.0192181-16.1431664-5.0002782-28.2444044-5.0002782s-22.5044245 1.9810601-28.2444044 4.9997218c-3.0256379-1.5906299-4.7555956-3.4701157-4.7555956-5.4997218 0-5.88 14.52-10.5 33-10.5z" mask="url(#b)"/></g></g></g></svg>